<?xml version="1.0" encoding="UTF-8" standalone="no"?>
<!-- Created with Inkscape (http://www.inkscape.org/) -->

<svg
   version="1.1"
   id="svg9"
   width="500"
   height="288"
   viewBox="0 0 500 288"
   sodipodi:docname="NEARDATA_Logo_transp.svg"
   inkscape:version="1.2.2 (732a01da63, 2022-12-09)"
   xmlns:inkscape="http://www.inkscape.org/namespaces/inkscape"
   xmlns:sodipodi="http://sodipodi.sourceforge.net/DTD/sodipodi-0.dtd"
   xmlns="http://www.w3.org/2000/svg"
   xmlns:svg="http://www.w3.org/2000/svg">
  <defs
     id="defs13" />
  <sodipodi:namedview
     id="namedview11"
     pagecolor="#ffffff"
     bordercolor="#000000"
     borderopacity="0.25"
     inkscape:showpageshadow="2"
     inkscape:pageopacity="0.0"
     inkscape:pagecheckerboard="0"
     inkscape:deskcolor="#d1d1d1"
     showgrid="false"
     inkscape:zoom="1.4412211"
     inkscape:cx="227.58479"
     inkscape:cy="132.17958"
     inkscape:window-width="1718"
     inkscape:window-height="1368"
     inkscape:window-x="-7"
     inkscape:window-y="0"
     inkscape:window-maximized="0"
     inkscape:current-layer="g15" />
  <g
     inkscape:groupmode="layer"
     inkscape:label="Image"
     id="g15">
    <path
       style="fill:#141f38;stroke-width:1.18236;fill-opacity:1"
       d="m 142.73888,99.135738 c -20.65473,-2.278181 -27.51682,-3.263473 -29.33825,-4.212492 -1.84018,-0.958789 -2.03397,-2.068943 -1.36766,-7.833982 2.1316,-18.442364 7.89259,-30.964581 19.53665,-42.465187 12.4193,-12.26626 26.91549,-18.015415 45.45765,-18.028378 11.72357,-0.0082 16.6444,1.019125 27.10895,5.65955 4.91814,2.18091 7.15029,2.683764 7.48296,1.685751 1.00607,-3.018215 9.48113,-12.192322 16.29025,-17.633933 15.36212,-12.2768633 32.33041,-17.6351181 52.55594,-16.59614463 19.52177,1.00282114 33.58249,6.66681693 48.50372,19.53846463 l 5.89943,5.089077 -6.79679,6.26801 c -43.59016,40.199051 -91.25898,62.66339 -144.37117,68.036177 -11.35701,1.148859 -32.6882,1.405649 -40.96168,0.493087 z"
       id="path4050" />
    <path
       style="fill:#02979d;stroke-width:1.18236;fill-opacity:1"
       d="M 101.55139,189.21239 C 85.079755,182.43975 76.715393,173.13566 71.75323,156.06647 68.477937,144.79982 70.644227,128.86313 76.754103,119.27682 l 1.5794,-2.47808 9.612338,2.78413 c 33.514209,9.7071 65.134729,11.12014 97.949109,4.37707 32.47058,-6.6724 70.16175,-25.826093 102.83697,-52.25915 6.16232,-4.985081 19.45487,-17.141431 29.53903,-27.014099 12.29649,-12.038618 18.64684,-17.490133 19.28224,-16.553019 9.18582,13.547616 14.33615,26.107371 15.89731,38.767603 l 0.93214,7.559305 7.45648,0.822511 c 11.14802,1.229725 19.76872,4.10873 28.14705,9.400108 17.24279,10.889807 26.46862,27.964031 26.46862,48.985351 0,26.79547 -17.6185,49.99519 -43.15605,56.82708 -4.76702,1.27528 -30.98266,1.57881 -135.38003,1.56751 l -129.46822,-0.0141 z"
       id="path4048" />
    <path
       style="fill:#141f38;stroke-width:1.18236;fill-opacity:1"
       d="m 444.83137,288.48351 c 0,-0.31631 5.02032,-11.88864 11.15623,-25.7163 l 11.15624,-25.14118 4.63966,-0.35548 4.63957,-0.35545 8.63934,19.86438 c 4.75159,10.9254 9.87417,22.65769 11.3835,26.07174 l 2.74417,6.20739 h -4.59574 c -4.44332,0 -4.66642,-0.19622 -6.72165,-5.9118 l -2.1259,-5.91179 h -13.92184 -13.92183 l -2.54326,5.91179 c -2.33374,5.42494 -2.87195,5.9118 -6.53584,5.9118 -2.1959,0 -3.99265,-0.25879 -3.99265,-0.5751 z m 36.57749,-19.82059 c -0.12587,-2.46019 -8.71807,-21.23669 -9.79885,-21.41341 -1.25693,-0.20551 -10.28479,21.25571 -9.33918,22.2013 0.37951,0.37954 4.85792,0.69007 9.95185,0.69007 6.6616,0 9.24063,-0.41494 9.18618,-1.47796 z"
       id="path4046" />
    <path
       style="fill:#141f38;stroke-width:1.18236;fill-opacity:1"
       d="m 406.99594,266.59379 v -22.4648 h -8.2765 -8.27651 v -3.54707 -3.54708 h 20.69127 20.69126 v 3.54708 3.54707 h -8.27652 -8.27648 v 22.4648 22.46482 h -4.13826 -4.13826 z"
       id="path4044" />
    <path
       style="fill:#141f38;stroke-width:1.18236;fill-opacity:1"
       d="m 324.23086,288.48351 c 0,-0.31631 5.02031,-11.88864 11.15625,-25.7163 l 11.15623,-25.14118 4.63958,-0.35548 4.63959,-0.35545 8.63933,19.86438 c 4.75166,10.9254 9.87423,22.65769 11.38353,26.07174 l 2.74416,6.20739 h -4.59579 c -4.44323,0 -4.66632,-0.19622 -6.72161,-5.9118 l -2.12587,-5.91179 h -13.92187 -13.92184 l -2.5432,5.91179 c -2.33375,5.42494 -2.87198,5.9118 -6.53582,5.9118 -2.19596,0 -3.99267,-0.25879 -3.99267,-0.5751 z m 36.57749,-19.82059 c -0.12587,-2.46019 -8.71809,-21.23669 -9.79888,-21.41341 -1.25692,-0.20551 -10.28475,21.25571 -9.33916,22.2013 0.37953,0.37954 4.85786,0.69007 9.95186,0.69007 6.66154,0 9.24056,-0.41494 9.18618,-1.47796 z"
       id="path4042" />
    <path
       style="fill:#141f38;stroke-width:1.18236;fill-opacity:1"
       d="m 261.56588,263.04672 v -26.01188 l 14.48389,0.026 c 16.64234,0.0298 21.51626,1.54553 27.73107,8.62381 9.04904,10.30627 8.26863,25.15171 -1.8527,35.24361 -6.56122,6.54209 -12.26299,8.13033 -29.18805,8.13033 h -11.17421 z m 30.94805,15.7548 c 6.31361,-3.69747 8.66095,-7.96743 8.66095,-15.7548 0,-7.75598 -2.14186,-11.68805 -8.85566,-16.25742 -3.23409,-2.2011 -5.51135,-2.66031 -13.19281,-2.66031 h -9.28403 v 18.1295 c 0,9.97122 0.39906,18.54344 0.88677,19.04937 1.58644,1.6457 17.89981,-0.23116 21.78478,-2.50634 z"
       id="path4040" />
    <path
       style="fill:#141f38;stroke-width:1.18236;fill-opacity:1"
       d="m 196.53617,263.04672 v -26.01188 l 14.48389,0.002 c 16.01297,0.002 20.54706,1.34745 24.99884,7.41806 4.89208,6.67098 2.06544,21.6805 -4.66003,24.74482 -1.59446,0.72649 -2.89902,1.79674 -2.89902,2.37833 0,0.58161 2.03558,4.08761 4.52352,7.79114 6.8973,10.26725 6.79335,9.68958 1.74361,9.68958 -4.31163,0 -4.72784,-0.35726 -9.29838,-7.98092 l -4.7847,-7.98092 -7.91561,-0.34961 -7.9156,-0.34962 v 8.33054 8.33053 h -4.13826 -4.13826 v -26.01189 z m 28.74992,0.98924 c 3.82197,-2.03559 5.45874,-4.67588 5.50088,-8.87345 0.0848,-8.45002 -3.90695,-11.03352 -17.04789,-11.03352 h -8.92639 v 10.64123 10.64123 h 8.94541 c 4.91999,0 10.10758,-0.61898 11.52799,-1.37549 z"
       id="path4038" />
    <path
       style="fill:#141f38;stroke-width:1.18236;fill-opacity:1"
       d="m 124.41232,288.15337 c 0,-0.49788 4.94807,-12.0702 10.99571,-25.71629 l 10.99573,-24.81105 4.67053,-0.34852 4.67053,-0.34847 10.9409,25.17801 c 6.01752,13.8479 10.93908,25.57707 10.93682,26.06479 -0.002,0.48772 -1.79537,0.88677 -3.98471,0.88677 -3.66092,0 -4.17793,-0.47479 -6.43745,-5.9118 l -2.45683,-5.91179 h -13.72817 -13.72817 l -2.45682,5.91179 c -2.25953,5.43701 -2.77653,5.9118 -6.43746,5.9118 -2.18934,0 -3.98061,-0.40736 -3.98061,-0.90524 z m 35.89042,-18.91733 c 0.69249,-1.12049 -7.70941,-21.02768 -9.14964,-21.67885 -0.93341,-0.42202 -10.18776,19.20802 -10.18776,21.60998 0,1.22827 18.57996,1.29443 19.3374,0.0688 z"
       id="path4036" />
    <path
       style="fill:#141f38;stroke-width:1.18236;fill-opacity:1"
       d="M 70.023835,263.04672 V 237.03484 H 88.941566 107.8593 v 3.54708 3.54707 H 93.079816 78.300342 v 7.09415 7.09415 h 13.005942 13.005946 v 4.13826 4.13824 H 91.249864 78.187511 l 0.351999,7.38975 0.352009,7.38974 14.483895,0.33199 14.483886,0.33197 v 3.51069 3.51068 H 88.941566 70.023835 Z"
       id="path4034" />
    <path
       style="fill:#141f38;stroke-width:1.18236;fill-opacity:1"
       d="m 0.2646974,263.04672 v -26.01188 l 4.4338465,0.0448 c 4.3449861,0.044 4.7063381,0.41714 18.0309561,18.62203 l 13.59712,18.57722 0.325629,-18.62203 0.32561,-18.62205 h 4.108227 4.108228 v 26.01189 26.01189 h -4.052149 c -3.86683,0 -4.691408,-0.86919 -18.030957,-19.00644 L 9.132381,251.04578 8.807511,270.05222 8.482632,289.05866 H 4.3736645 0.2646974 Z"
       id="path197" />
  </g>
</svg>
